<svg width="51" height="51" viewBox="0 0 51 51" fill="none" xmlns="http://www.w3.org/2000/svg">
<circle cx="25.3507" cy="25.5426" r="24.9034" fill="#FFC4D6"/>
<path d="M27.6515 25.6426V30.5826C27.6515 30.9293 27.7782 31.2293 28.0315 31.4826C28.2848 31.7226 28.5848 31.8426 28.9315 31.8426H29.1915V32.0426H22.0115V31.8426H22.2715C22.6182 31.8426 22.9115 31.7226 23.1515 31.4826C23.4048 31.2293 23.5382 30.9293 23.5515 30.5826V19.5026C23.5382 19.1426 23.4048 18.8426 23.1515 18.6026C22.9115 18.3626 22.6182 18.2426 22.2715 18.2426H22.0115V18.0426H30.8715C31.2848 18.0426 31.7315 18.0026 32.2115 17.9226C32.7048 17.8426 33.0515 17.7626 33.2515 17.6826V21.8026H33.0515V21.6426C33.0515 20.8559 32.8315 20.2359 32.3915 19.7826C31.9515 19.3293 31.3382 19.0893 30.5515 19.0626H27.6515V24.6426H33.0315C33.6715 24.6293 34.1915 24.4226 34.5915 24.0226C34.9915 23.6093 35.1915 23.0826 35.1915 22.4426V22.3626H35.3915V27.9226H35.1915V27.8226C35.1915 27.1959 34.9915 26.6826 34.5915 26.2826C34.1915 25.8693 33.6782 25.6559 33.0515 25.6426H27.6515Z" fill="#545050"/>
</svg>
