<svg width="151" height="50" viewBox="0 0 151 50" fill="none" xmlns="http://www.w3.org/2000/svg">
<circle cx="25.6711" cy="24.9904" r="24.9034" fill="#FFC4D6"/>
<path d="M32.8198 25.8704C32.8198 25.6037 32.7265 25.377 32.5398 25.1904C32.3665 25.0037 32.1465 24.9037 31.8798 24.8904H25.4798V30.0304C25.4798 30.377 25.6065 30.677 25.8598 30.9304C26.1132 31.1704 26.4132 31.2904 26.7598 31.2904H27.0198V31.4904H22.6398V31.2904H22.8998C23.2465 31.2904 23.5398 31.1704 23.7798 30.9304C24.0332 30.677 24.1665 30.377 24.1798 30.0304V18.8304C24.1798 18.5104 24.0465 18.2437 23.7798 18.0304C23.5265 17.8037 23.2332 17.6904 22.8998 17.6904H22.6598L22.6398 17.4904H28.4998C29.0732 17.4904 29.5798 17.4437 30.0198 17.3504C30.4598 17.257 30.7465 17.1837 30.8798 17.1304V19.3904H30.6798V19.0904C30.6798 18.8237 30.5865 18.597 30.3998 18.4104C30.2132 18.2104 29.9798 18.1104 29.6998 18.1104H25.4798V24.2904H31.8598C32.1265 24.277 32.3532 24.177 32.5398 23.9904C32.7265 23.8037 32.8198 23.5704 32.8198 23.2904V23.0104H33.0198V26.1704H32.8198V25.8704ZM34.4819 31.2904C34.8285 31.2904 35.1219 31.1704 35.3619 30.9304C35.6152 30.677 35.7485 30.377 35.7619 30.0304V18.9504C35.7485 18.6037 35.6152 18.3104 35.3619 18.0704C35.1219 17.817 34.8285 17.6904 34.4819 17.6904H34.2219V17.4904H38.6019V17.6904H38.3419C37.8619 17.6904 37.4952 17.897 37.2419 18.3104C37.1219 18.5104 37.0619 18.7237 37.0619 18.9504V30.8704H39.9219C40.9085 30.8704 41.6619 30.6504 42.1819 30.2104C42.7019 29.7704 43.1352 29.117 43.4819 28.2504H43.6819L42.5219 31.4904H34.2219V31.2904H34.4819ZM46.8017 19.2304C48.2284 17.8837 50.075 17.2104 52.3417 17.2104C54.6217 17.2104 56.475 17.8837 57.9017 19.2304C59.3284 20.5637 60.0417 22.317 60.0417 24.4904C60.0417 26.6637 59.3284 28.4237 57.9017 29.7704C56.475 31.1037 54.6217 31.7704 52.3417 31.7704C50.075 31.7704 48.2284 31.1037 46.8017 29.7704C45.375 28.4237 44.6617 26.6637 44.6617 24.4904C44.6617 22.317 45.375 20.5637 46.8017 19.2304ZM47.8817 29.3304C49.015 30.557 50.5017 31.1704 52.3417 31.1704C54.1817 31.1704 55.6617 30.557 56.7817 29.3304C57.915 28.1037 58.4817 26.4904 58.4817 24.4904C58.4817 22.4904 57.915 20.877 56.7817 19.6504C55.6617 18.4237 54.1817 17.8104 52.3417 17.8104C50.5017 17.8104 49.015 18.4237 47.8817 19.6504C46.7617 20.877 46.2017 22.4904 46.2017 24.4904C46.2017 26.4904 46.7617 28.1037 47.8817 29.3304ZM76.227 17.4904H80.167V17.6904H80.007C79.6603 17.6904 79.3137 17.797 78.967 18.0104C78.6337 18.2104 78.3937 18.517 78.247 18.9304L74.927 29.5104C74.6603 30.3504 74.5137 31.0904 74.487 31.7304H74.307L70.227 20.2904L67.187 29.5104C66.9337 30.337 66.7937 31.077 66.767 31.7304H66.587L62.047 18.9104C61.887 18.5104 61.6403 18.2104 61.307 18.0104C60.9737 17.797 60.6337 17.6904 60.287 17.6904H60.127V17.4904H64.567V17.6904H64.387C64.107 17.6904 63.8937 17.7837 63.747 17.9704C63.6137 18.1437 63.547 18.3104 63.547 18.4704C63.547 18.6304 63.567 18.777 63.607 18.9104L66.647 28.6504L70.367 17.1704L70.547 17.1904L74.487 28.2504L77.167 18.8904C77.207 18.7437 77.227 18.597 77.227 18.4504C77.227 18.2904 77.1603 18.1237 77.027 17.9504C76.8937 17.777 76.687 17.6904 76.407 17.6904H76.227V17.4904ZM81.4154 31.2904C81.7621 31.2904 82.0554 31.1704 82.2954 30.9304C82.5488 30.677 82.6821 30.377 82.6954 30.0304V18.8304C82.6954 18.5104 82.5688 18.2437 82.3154 18.0304C82.0621 17.8037 81.7621 17.6904 81.4154 17.6904H81.1754L81.1554 17.4904H87.0154C87.4288 17.4904 87.8754 17.4504 88.3554 17.3704C88.8488 17.2904 89.1954 17.2104 89.3954 17.1304V19.6504H89.1954V19.2904C89.1954 18.9704 89.0821 18.697 88.8554 18.4704C88.6421 18.2437 88.3821 18.1237 88.0754 18.1104H83.9954V24.2904H87.3754C87.6421 24.277 87.8688 24.177 88.0554 23.9904C88.2421 23.8037 88.3354 23.5704 88.3354 23.2904V23.0104H88.5354V26.1704H88.3354V25.8704C88.3354 25.6037 88.2421 25.377 88.0554 25.1904C87.8821 25.0037 87.6621 24.9037 87.3954 24.8904H83.9954V30.8704H86.8554C87.8421 30.8704 88.5954 30.6504 89.1154 30.2104C89.6354 29.7704 90.0688 29.117 90.4154 28.2504H90.6154L89.4554 31.4904H81.1554V31.2904H81.4154ZM96.6231 18.1104H95.3431V30.0304C95.3431 30.377 95.4631 30.677 95.7031 30.9304C95.9564 31.1704 96.2631 31.2904 96.6231 31.2904H96.8631L96.8831 31.4904H92.5031V31.2904H92.7631C93.1098 31.2904 93.4031 31.1704 93.6431 30.9304C93.8964 30.6904 94.0298 30.397 94.0431 30.0504V18.9504C94.0298 18.6037 93.8964 18.3104 93.6431 18.0704C93.4031 17.817 93.1098 17.6904 92.7631 17.6904H92.5031V17.4904H97.9031C99.1164 17.4904 100.07 17.8304 100.763 18.5104C101.456 19.177 101.803 20.0504 101.803 21.1304C101.803 22.197 101.47 23.1237 100.803 23.9104C100.15 24.6837 99.3498 25.0704 98.4031 25.0704C98.6031 25.1637 98.8364 25.3504 99.1031 25.6304C99.3831 25.897 99.6298 26.177 99.8431 26.4704C100.99 28.1104 101.736 29.1237 102.083 29.5104C102.43 29.8837 102.676 30.1437 102.823 30.2904C102.97 30.4237 103.13 30.557 103.303 30.6904C103.476 30.8237 103.65 30.9304 103.823 31.0104C104.21 31.197 104.623 31.2904 105.063 31.2904V31.4904H103.963C103.39 31.4904 102.856 31.3904 102.363 31.1904C101.87 30.977 101.496 30.7637 101.243 30.5504C101.003 30.3237 100.79 30.1104 100.603 29.9104C100.43 29.697 99.9364 29.0037 99.1231 27.8304C98.3098 26.657 97.8364 25.9904 97.7031 25.8304C97.5698 25.657 97.4298 25.4904 97.2831 25.3304C96.8564 24.877 96.4298 24.6504 96.0031 24.6504V24.4504C96.1098 24.4637 96.2498 24.4704 96.4231 24.4704C96.5964 24.4704 96.8098 24.4637 97.0631 24.4504C98.7164 24.4104 99.7564 23.717 100.183 22.3704C100.263 22.1037 100.303 21.857 100.303 21.6304C100.303 21.3904 100.303 21.237 100.303 21.1704C100.276 20.277 100.043 19.557 99.6031 19.0104C99.1631 18.4637 98.5698 18.1704 97.8231 18.1304C97.5031 18.117 97.1031 18.1104 96.6231 18.1104ZM117.758 22.7704C117.518 23.0237 117.245 23.2104 116.938 23.3304C118.245 23.517 119.238 23.9837 119.918 24.7304C120.598 25.4637 120.938 26.3637 120.938 27.4304C120.938 28.7237 120.418 29.7704 119.378 30.5704C118.338 31.3704 116.972 31.7704 115.278 31.7704C113.585 31.7704 112.258 31.357 111.298 30.5304C110.338 29.6904 109.858 28.5104 109.858 26.9904C109.858 26.9104 109.858 26.8304 109.858 26.7504L110.078 26.7104C110.345 28.697 111.172 29.9837 112.558 30.5704V18.9304C112.532 18.5704 112.392 18.277 112.138 18.0504C111.898 17.8104 111.605 17.6904 111.258 17.6904H111.018V17.4904H114.378C115.632 17.4904 116.632 17.777 117.378 18.3504C118.138 18.9237 118.518 19.677 118.518 20.6104C118.518 21.5304 118.265 22.2504 117.758 22.7704ZM113.858 18.1304V30.9304C114.298 30.997 114.805 31.0304 115.378 31.0304C116.658 31.0304 117.652 30.6904 118.358 30.0104C119.078 29.317 119.438 28.4237 119.438 27.3304C119.438 26.7437 119.325 26.2237 119.098 25.7704C118.885 25.317 118.612 24.9637 118.278 24.7104C117.398 24.0304 116.158 23.6904 114.558 23.6904C114.545 23.6904 114.538 23.6904 114.538 23.6904L114.518 23.5104C114.532 23.5104 114.538 23.5104 114.538 23.5104C115.218 23.5104 115.798 23.2904 116.278 22.8504C116.772 22.397 117.018 21.7037 117.018 20.7704C117.018 19.0104 116.052 18.1304 114.118 18.1304H113.858ZM136.033 31.2904H136.193V31.4904H131.693V31.2904H131.873C132.153 31.2904 132.36 31.2037 132.493 31.0304C132.64 30.8437 132.713 30.6704 132.713 30.5104C132.713 30.3504 132.687 30.1904 132.633 30.0304L131.353 26.6304H125.953L124.613 30.0504C124.56 30.2104 124.533 30.3704 124.533 30.5304C124.533 30.677 124.6 30.8437 124.733 31.0304C124.88 31.2037 125.093 31.2904 125.373 31.2904H125.553V31.4904H121.533V31.2904H121.713C122.047 31.2904 122.373 31.1837 122.693 30.9704C123.013 30.757 123.273 30.4437 123.473 30.0304L127.993 19.2704C128.487 18.1904 128.733 17.5037 128.733 17.2104H128.913L134.273 30.0304C134.46 30.4437 134.713 30.757 135.033 30.9704C135.353 31.1837 135.687 31.2904 136.033 31.2904ZM126.193 26.0304H131.113L128.713 19.6104L126.193 26.0304ZM141.272 18.1104H139.992V30.0304C139.992 30.377 140.112 30.677 140.352 30.9304C140.605 31.1704 140.912 31.2904 141.272 31.2904H141.512L141.532 31.4904H137.152V31.2904H137.412C137.758 31.2904 138.052 31.1704 138.292 30.9304C138.545 30.6904 138.678 30.397 138.692 30.0504V18.9504C138.678 18.6037 138.545 18.3104 138.292 18.0704C138.052 17.817 137.758 17.6904 137.412 17.6904H137.152V17.4904H142.552C143.765 17.4904 144.718 17.8304 145.412 18.5104C146.105 19.177 146.452 20.0504 146.452 21.1304C146.452 22.197 146.118 23.1237 145.452 23.9104C144.798 24.6837 143.998 25.0704 143.052 25.0704C143.252 25.1637 143.485 25.3504 143.752 25.6304C144.032 25.897 144.278 26.177 144.492 26.4704C145.638 28.1104 146.385 29.1237 146.732 29.5104C147.078 29.8837 147.325 30.1437 147.472 30.2904C147.618 30.4237 147.778 30.557 147.952 30.6904C148.125 30.8237 148.298 30.9304 148.472 31.0104C148.858 31.197 149.272 31.2904 149.712 31.2904V31.4904H148.612C148.038 31.4904 147.505 31.3904 147.012 31.1904C146.518 30.977 146.145 30.7637 145.892 30.5504C145.652 30.3237 145.438 30.1104 145.252 29.9104C145.078 29.697 144.585 29.0037 143.772 27.8304C142.958 26.657 142.485 25.9904 142.352 25.8304C142.218 25.657 142.078 25.4904 141.932 25.3304C141.505 24.877 141.078 24.6504 140.652 24.6504V24.4504C140.758 24.4637 140.898 24.4704 141.072 24.4704C141.245 24.4704 141.458 24.4637 141.712 24.4504C143.365 24.4104 144.405 23.717 144.832 22.3704C144.912 22.1037 144.952 21.857 144.952 21.6304C144.952 21.3904 144.952 21.237 144.952 21.1704C144.925 20.277 144.692 19.557 144.252 19.0104C143.812 18.4637 143.218 18.1704 142.472 18.1304C142.152 18.117 141.752 18.1104 141.272 18.1104Z" fill="#545050"/>
</svg>
